<?xml version="1.0" encoding="UTF-8"?>
<svg version="1.1" xmlns="http://www.w3.org/2000/svg" width="512" height="512">
<path d="M0 0 C1.37285156 -0.04253906 1.37285156 -0.04253906 2.7734375 -0.0859375 C10.67258156 1.19091044 16.40664492 8.86757037 21.765625 14.25 C22.73845766 15.22148343 23.71158687 16.19266997 24.68499756 17.16357422 C26.71546373 19.19110405 28.74229927 21.22217601 30.76660156 23.25585938 C33.35784952 25.85853151 35.9580152 28.45207988 38.56094742 31.0430603 C40.56858801 33.04346795 42.57143358 35.04862187 44.57286835 37.05523682 C45.99381824 38.47816291 47.41878533 39.89707372 48.84381104 41.31591797 C49.70520691 42.18361816 50.56660278 43.05131836 51.45410156 43.9453125 C52.21321838 44.70602051 52.97233521 45.46672852 53.75445557 46.25048828 C57.02966954 49.97038413 57.93100902 52.82404429 58 57.75 C58.02835938 58.66523437 58.05671875 59.58046875 58.0859375 60.5234375 C56.87236452 68.03113474 50.13516952 73.02501991 44.9375 78.0625 C38.34420928 84.55226891 32.29797002 91.06470937 26.625 98.375 C25.18761426 100.06259733 23.75010941 101.75009321 22.3125 103.4375 C-2.99753458 134.54775084 -16.07606125 171.17754097 -26.77606201 209.25097656 C-39.18582947 253.25993482 -53.26865206 294.36354248 -82.375 330.375 C-82.79910156 330.90351563 -83.22320312 331.43203125 -83.66015625 331.9765625 C-95.88827717 347.08832984 -109.80358182 361.69643636 -125.375 373.375 C-126.60499554 374.33226926 -127.83409142 375.29069513 -129.0625 376.25 C-137.79357101 383.00675638 -146.72729278 389.01367278 -156.375 394.375 C-157.14408691 394.8066748 -157.91317383 395.23834961 -158.70556641 395.68310547 C-172.15302569 403.17104633 -185.89515729 409.17880222 -200.375 414.375 C-201.73141602 414.86299072 -201.73141602 414.86299072 -203.11523438 415.36083984 C-216.31618039 420.04864879 -229.72601455 423.95969809 -243.1875 427.8125 C-287.55046966 440.52947812 -328.51416776 456.26047341 -363.375 487.375 C-363.87837891 487.82198242 -364.38175781 488.26896484 -364.90039062 488.72949219 C-371.28891723 494.42503997 -377.43896556 500.31714481 -383.36743164 506.49194336 C-387.70891388 510.94288103 -390.51901833 512.66273135 -396.75 512.75 C-397.66523438 512.77835938 -398.58046875 512.80671875 -399.5234375 512.8359375 C-407.42258156 511.55908956 -413.15664492 503.88242963 -418.515625 498.5 C-419.48845766 497.52851657 -420.46158687 496.55733003 -421.43499756 495.58642578 C-423.46546373 493.55889595 -425.49229927 491.52782399 -427.51660156 489.49414062 C-430.10784952 486.89146849 -432.7080152 484.29792012 -435.31094742 481.7069397 C-437.31858801 479.70653205 -439.32143358 477.70137813 -441.32286835 475.69476318 C-442.74381824 474.27183709 -444.16878533 472.85292628 -445.59381104 471.43408203 C-446.45520691 470.56638184 -447.31660278 469.69868164 -448.20410156 468.8046875 C-448.96321838 468.04397949 -449.72233521 467.28327148 -450.50445557 466.49951172 C-453.77966954 462.77961587 -454.68100902 459.92595571 -454.75 455 C-454.77835937 454.08476562 -454.80671875 453.16953125 -454.8359375 452.2265625 C-453.62231924 444.71858512 -446.88502576 439.72542004 -441.6875 434.6875 C-435.09407954 428.19144521 -429.04408695 421.69365553 -423.375 414.375 C-422.45277739 413.26136632 -421.52673079 412.15089249 -420.59765625 411.04296875 C-412.5651195 401.39006192 -405.77921392 391.16877875 -399.375 380.375 C-398.99891602 379.7469043 -398.62283203 379.11880859 -398.23535156 378.47167969 C-382.15922579 351.25547803 -374.35714547 319.34736453 -365.91210938 289.17797852 C-360.18288595 268.73277985 -353.91284635 248.80329339 -344.5625 229.6875 C-343.80066406 228.12044312 -343.80066406 228.12044312 -343.0234375 226.52172852 C-326.56572219 193.21578449 -301.15145748 161.70734311 -271.375 139.375 C-270.14500446 138.41773074 -268.91590858 137.45930487 -267.6875 136.5 C-258.95642899 129.74324362 -250.02270722 123.73632722 -240.375 118.375 C-239.60591309 117.9433252 -238.83682617 117.51165039 -238.04443359 117.06689453 C-224.59491474 109.57780684 -210.85269351 103.58182468 -196.375 98.375 C-195.50794434 98.06030762 -194.64088867 97.74561523 -193.74755859 97.42138672 C-180.3185157 92.60441979 -166.64424849 88.69845226 -152.93093872 84.79077148 C-108.77665194 72.20471333 -68.02505267 56.42420712 -33.375 25.375 C-32.56337402 24.64796875 -32.56337402 24.64796875 -31.73535156 23.90625 C-24.82381461 17.67978621 -18.17023603 11.2527637 -11.71484375 4.5546875 C-7.89582808 0.99707357 -5.20268523 0.07286674 0 0 Z " fill="#FE8D8D" transform="translate(454.375,-0.375)"/>
<path d="M0 0 C0.66 0 1.32 0 2 0 C3.35646057 1.37646484 3.35646057 1.37646484 4.96704102 3.3359375 C9.54261214 8.71235336 14.52455682 13.65000381 19.52734375 18.625 C20.52647028 19.62225677 21.5253728 20.61973802 22.52406311 21.61743164 C25.1274695 24.21705679 27.7338667 26.81366231 30.34094238 29.40960693 C33.01104274 32.06939763 35.67824277 34.7320934 38.34570312 37.39453125 C43.56100038 42.59916888 48.77946716 47.8006134 54 53 C52.26871938 58.39104773 50.37104443 63.677538 48.276474 68.93748474 C43.09536263 82.0242031 39.22264797 95.39341215 35.4375 108.9375 C34.19113033 113.36468533 32.93925678 117.79028564 31.68359375 122.21484375 C31.37955124 123.28723801 31.07550873 124.35963226 30.76225281 125.46452332 C20.27983663 162.17293498 7.06462232 197.83265871 -17 228 C-17.71671875 228.90878906 -18.4334375 229.81757813 -19.171875 230.75390625 C-32.34161706 247.16938261 -47.23610649 263.22319467 -64 276 C-65.23445265 276.96344219 -66.46882181 277.92699134 -67.703125 278.890625 C-76.43143712 285.63848299 -85.35882231 291.6423013 -95 297 C-95.76908691 297.4316748 -96.53817383 297.86334961 -97.33056641 298.30810547 C-110.77802569 305.79604633 -124.52015729 311.80380222 -139 317 C-140.35641602 317.48799072 -140.35641602 317.48799072 -141.74023438 317.98583984 C-155.74961136 322.96073199 -169.99882479 327.06195601 -184.28610229 331.14428711 C-194.96592874 334.19940511 -205.58514706 337.36371343 -216.125 340.875 C-217.16503174 341.21974365 -218.20506348 341.5644873 -219.27661133 341.91967773 C-225.47690615 344.02029355 -231.4454396 346.42910575 -237.40185547 349.14892578 C-240.37633445 350.12327588 -241.13650085 350.13599611 -244 349 C-246.45513916 346.90562439 -246.45513916 346.90562439 -249.22753906 344.11303711 C-249.73530884 343.60570541 -250.24307861 343.09837372 -250.76623535 342.57566833 C-252.43990925 340.89990733 -254.10271128 339.21377731 -255.765625 337.52734375 C-256.92510527 336.36226727 -258.08525042 335.19785214 -259.24603271 334.03407288 C-262.29732787 330.97133103 -265.33950625 327.89968669 -268.37988281 324.82611084 C-271.4847856 321.69050356 -274.5982131 318.56338633 -277.7109375 315.43554688 C-283.81567432 309.29864898 -289.91080744 303.15232143 -296 297 C-295.04107684 295.71061345 -294.0806683 294.42233149 -293.11962891 293.13452148 C-292.58496002 292.41699203 -292.05029114 291.69946259 -291.49942017 290.96018982 C-289.90130252 288.87097293 -288.19450883 286.9609373 -286.375 285.0625 C-272.14554207 269.20371482 -261.04750981 250.06675623 -254 230 C-253.61279785 228.89857666 -253.61279785 228.89857666 -253.21777344 227.77490234 C-249.80317234 217.95232816 -246.69374891 208.04122361 -243.65795898 198.09594727 C-233.96103881 166.41279907 -220.97674215 139.95020564 -199 115 C-198.56123535 114.49807129 -198.1224707 113.99614258 -197.67041016 113.47900391 C-192.44430644 107.51886395 -187.08581829 102.06798108 -181 97 C-179.54980469 95.73542969 -179.54980469 95.73542969 -178.0703125 94.4453125 C-157.96689217 76.96260976 -134.35507433 62.68805559 -108.75 54.9375 C-108.08355469 54.73342529 -107.41710937 54.52935059 -106.73046875 54.3190918 C-101.37499307 52.81861193 -95.89735944 51.90357573 -90.57421875 53.91796875 C-83.54823103 58.64560024 -83.54823103 58.64560024 -82 63 C-81.32654982 68.08071272 -81.40150898 71.82439264 -83.75 76.4375 C-88.19410005 81.49883616 -92.43622456 82.92482135 -98.75 84.75 C-125.62580881 92.9511775 -147.75074111 107.70167315 -168 127 C-168.83015625 127.76570313 -169.6603125 128.53140625 -170.515625 129.3203125 C-196.02704332 153.59730736 -207.7927441 184.70455425 -217.66357422 217.66650391 C-217.90605392 218.47538055 -218.14853363 219.2842572 -218.39836121 220.11764526 C-218.84213801 221.60299182 -219.28323496 223.08914447 -219.72041321 224.57644653 C-222.26655495 233.13055478 -225.172244 241.51673199 -228 250 C-199.29 221.29 -199.29 221.29 -170 192 C-170.99 189.525 -170.99 189.525 -172 187 C-173.38467057 182.84598829 -173.65787451 179.33422431 -173 175 C-169.30323363 168.21961552 -163.03568933 162.74428039 -157.62109375 157.35546875 C-156.73140396 156.46386551 -155.84171417 155.57226227 -154.92506409 154.65364075 C-153.05409328 152.7813156 -151.18126724 150.91111141 -149.30493164 149.04418945 C-146.90866774 146.65936844 -144.52156413 144.26561057 -142.13699245 141.86910534 C-139.84489061 139.56802083 -137.54516334 137.27458842 -135.24609375 134.98046875 C-134.39389755 134.12422409 -133.54170135 133.26797943 -132.66368103 132.38578796 C-131.86257401 131.59098526 -131.06146698 130.79618256 -130.23608398 129.97729492 C-129.53692368 129.2797258 -128.83776337 128.58215668 -128.11741638 127.8634491 C-123.5365586 123.83202884 -120.19151168 122.52854786 -114.2109375 122.6875 C-111.13741841 123.12191966 -108.74157505 124.59733369 -106 126 C-102.11857681 124.72458371 -99.45219678 121.79503107 -96.59570312 118.99731445 C-96.06819458 118.48776718 -95.54068604 117.97821991 -94.99719238 117.45323181 C-93.25220116 115.76296167 -91.51564471 114.06442036 -89.78125 112.36328125 C-89.1820726 111.77599936 -88.5828952 111.18871746 -87.96556091 110.58363914 C-84.78076901 107.4582042 -81.60380868 104.32501075 -78.43164062 101.18676758 C-75.83977945 98.62571975 -73.23326508 96.08126718 -70.61132812 93.55102539 C-55.87297485 79.31668378 -43.32983145 66.55907605 -35.15435791 47.45603943 C-27.84237496 31.89889007 -15.40578324 17.49989336 -3.77734375 4.98828125 C-1.84606455 2.92181037 -1.84606455 2.92181037 0 0 Z " fill="#EB5568" transform="translate(393,97)"/>
<path d="M0 0 C2.29003906 1.94946289 2.29003906 1.94946289 4.765625 4.47265625 C6.09980469 5.82133789 6.09980469 5.82133789 7.4609375 7.19726562 C8.38132812 8.14279297 9.30171875 9.08832031 10.25 10.0625 C11.19461673 11.02216973 12.13992195 11.98116229 13.0859375 12.93945312 C15.39749172 15.28638828 17.7017634 17.64003391 20 20 C19 23 19 23 15.6171875 24.875 C14.04337322 25.59856716 12.46185161 26.30549099 10.875 27 C10.00915283 27.38373779 9.14330566 27.76747559 8.2512207 28.1628418 C0.02052192 31.71824835 -8.37087071 34.80291346 -16.8125 37.8125 C-17.77558075 38.15800903 -17.77558075 38.15800903 -18.75811768 38.51049805 C-28.06725876 41.83470316 -37.43096852 44.53332529 -47 47 C-98.06317378 60.90519296 -142.1658816 79.1190769 -181 116 C-181.82757813 116.78503906 -182.65515625 117.57007813 -183.5078125 118.37890625 C-189.15936151 123.88276669 -194.13991531 129.79248799 -199 136 C-199.45246094 136.56541504 -199.90492188 137.13083008 -200.37109375 137.71337891 C-223.72488204 166.97681484 -236.1987271 201.28381327 -246 237 C-261.506372 292.99818246 -261.506372 292.99818246 -275 318 C-280.43733055 313.47008204 -285.46458931 308.65705784 -290.4375 303.625 C-291.16904297 302.88894531 -291.90058594 302.15289062 -292.65429688 301.39453125 C-294.43852842 299.59863806 -296.2199056 297.79999103 -298 296 C-296.26971231 290.61209563 -294.37334015 285.32873038 -292.27963257 280.07199097 C-287.07275698 266.92205947 -283.18308133 253.48346475 -279.375 239.875 C-278.11613899 235.41287943 -276.85216266 230.9522235 -275.5859375 226.4921875 C-275.13028915 224.88484238 -275.13028915 224.88484238 -274.66543579 223.24502563 C-257.95651518 164.61536613 -229.8450067 110.38375503 -180 73 C-178.77000446 72.04273074 -177.54090858 71.08430487 -176.3125 70.125 C-167.58142899 63.36824362 -158.64770722 57.36132722 -149 52 C-148.23091309 51.5683252 -147.46182617 51.13665039 -146.66943359 50.69189453 C-133.21991474 43.20280684 -119.47769351 37.20682468 -105 32 C-104.13294434 31.68530762 -103.26588867 31.37061523 -102.37255859 31.04638672 C-86.99754172 25.53140338 -71.28508592 21.18333513 -55.5838623 16.71478271 C-30.89873707 9.73274432 -30.89873707 9.73274432 -7.1171875 0.1953125 C-3.78418499 -1.08275613 -3.1713038 -1.2881811 0 0 Z " fill="#EC5569" transform="translate(363,66)"/>
<path d="M0 0 C5.43733055 4.52991796 10.46458931 9.34294216 15.4375 14.375 C16.16904297 15.11105469 16.90058594 15.84710938 17.65429688 16.60546875 C19.43852842 18.40136194 21.2199056 20.20000897 23 22 C21.26871938 27.39104773 19.37104443 32.677538 17.276474 37.93748474 C12.09536263 51.0242031 8.22264797 64.39341215 4.4375 77.9375 C3.19113033 82.36468533 1.93925678 86.79028564 0.68359375 91.21484375 C0.37955124 92.28723801 0.07550873 93.35963226 -0.23774719 94.46452332 C-10.72016337 131.17293498 -23.93537768 166.83265871 -48 197 C-48.71671875 197.90878906 -49.4334375 198.81757813 -50.171875 199.75390625 C-63.34161706 216.16938261 -78.23610649 232.22319467 -95 245 C-96.23445265 245.96344219 -97.46882181 246.92699134 -98.703125 247.890625 C-107.43143712 254.63848299 -116.35882231 260.6423013 -126 266 C-126.76908691 266.4316748 -127.53817383 266.86334961 -128.33056641 267.30810547 C-141.77802569 274.79604633 -155.52015729 280.80380222 -170 286 C-170.90427734 286.32532715 -171.80855469 286.6506543 -172.74023438 286.98583984 C-186.74961136 291.96073199 -200.99882479 296.06195601 -215.28610229 300.14428711 C-225.96592874 303.19940511 -236.58514706 306.36371343 -247.125 309.875 C-248.16503174 310.21974365 -249.20506348 310.5644873 -250.27661133 310.91967773 C-256.47690615 313.02029355 -262.4454396 315.42910575 -268.40185547 318.14892578 C-271.30039003 319.09839876 -272.26521338 319.29204922 -275 318 C-277.38183594 315.95874023 -277.38183594 315.95874023 -279.984375 313.30859375 C-280.67506073 312.61154076 -280.67506073 312.61154076 -281.37969971 311.90040588 C-282.84367811 310.41968181 -284.29686041 308.92885481 -285.75 307.4375 C-286.74279449 306.42965336 -287.7362767 305.42248367 -288.73046875 304.41601562 C-291.16166473 301.95180539 -293.58328868 299.47842671 -296 297 C-278.44752889 283.1712956 -250.17239185 277.53300704 -229.08474731 271.50030518 C-223.48269995 269.89479419 -217.88980074 268.25805012 -212.296875 266.62109375 C-211.21358414 266.30418579 -210.13029327 265.98727783 -209.01417542 265.6607666 C-189.77661239 260.01640334 -171.02965872 253.85798152 -153 245 C-151.92347168 244.48300537 -151.92347168 244.48300537 -150.82519531 243.95556641 C-112.22487648 225.29255118 -81.87561742 193.66619199 -59 158 C-58.35289062 157.00871094 -57.70578125 156.01742187 -57.0390625 154.99609375 C-41.37566355 129.73610531 -34.00153509 99.75802857 -26 71.4375 C-8.10618763 8.10618763 -8.10618763 8.10618763 0 0 Z " fill="#CC2E43" transform="translate(424,128)"/>
<path d="M0 0 C3.53816053 1.51031326 5.83366147 3.57593356 8.546875 6.28125 C9.39121094 7.12300781 10.23554687 7.96476562 11.10546875 8.83203125 C12.41451172 10.15267578 12.41451172 10.15267578 13.75 11.5 C14.63816406 12.38042969 15.52632813 13.26085937 16.44140625 14.16796875 C17.28058594 15.00972656 18.11976562 15.85148437 18.984375 16.71875 C20.14018066 17.87793945 20.14018066 17.87793945 21.31933594 19.06054688 C23 21 23 21 23 23 C23.53703552 23.21171844 24.07407104 23.42343689 24.62738037 23.64157104 C27.89425864 25.51200235 30.33853721 28.07697976 32.96191406 30.73486328 C33.84061157 31.61312271 33.84061157 31.61312271 34.73706055 32.50912476 C36.66802839 34.44148356 38.59181947 36.38082516 40.515625 38.3203125 C41.85468611 39.66310456 43.19419009 41.00545513 44.53411865 42.34738159 C48.05664429 45.87753717 51.57312203 49.41365806 55.08837891 52.9510498 C58.67768551 56.56082851 62.27267256 60.16494015 65.8671875 63.76953125 C72.91703318 70.84081558 79.96050337 77.91841413 87 85 C84.33414607 87.66585393 81.17000367 88.95154278 77.8125 90.5625 C50.91302549 103.79239599 27.65819032 122.59908861 6.95727539 144.16723633 C2.64048875 148.59403359 -0.17838362 150.28821266 -6.375 150.375 C-7.29023437 150.40335938 -8.20546875 150.43171875 -9.1484375 150.4609375 C-17.04758156 149.18408956 -22.78164492 141.50742963 -28.140625 136.125 C-29.11345766 135.15351657 -30.08658687 134.18233003 -31.05999756 133.21142578 C-33.09046373 131.18389595 -35.11729927 129.15282399 -37.14160156 127.11914062 C-39.73284952 124.51646849 -42.3330152 121.92292012 -44.93594742 119.3319397 C-46.94358801 117.33153205 -48.94643358 115.32637813 -50.94786835 113.31976318 C-52.36881824 111.89683709 -53.79378533 110.47792628 -55.21881104 109.05908203 C-56.08020691 108.19138184 -56.94160278 107.32368164 -57.82910156 106.4296875 C-58.58821838 105.66897949 -59.34733521 104.90827148 -60.12945557 104.12451172 C-63.40466954 100.40461587 -64.30600902 97.55095571 -64.375 92.625 C-64.40335937 91.70976562 -64.43171875 90.79453125 -64.4609375 89.8515625 C-63.24731924 82.34358512 -56.51002576 77.35042004 -51.3125 72.3125 C-44.71907954 65.81644521 -38.66908695 59.31865553 -33 52 C-32.07777739 50.88636632 -31.15173079 49.77589249 -30.22265625 48.66796875 C-18.50573889 34.5874466 -5.85478502 17.56435507 0 0 Z " fill="#FEF1FA" transform="translate(64,362)"/>
<path d="M0 0 C1.37285156 -0.04253906 1.37285156 -0.04253906 2.7734375 -0.0859375 C10.67258156 1.19091044 16.40664492 8.86757037 21.765625 14.25 C22.73845766 15.22148343 23.71158687 16.19266997 24.68499756 17.16357422 C26.71546373 19.19110405 28.74229927 21.22217601 30.76660156 23.25585938 C33.35784952 25.85853151 35.9580152 28.45207988 38.56094742 31.0430603 C40.56858801 33.04346795 42.57143358 35.04862187 44.57286835 37.05523682 C45.99381824 38.47816291 47.41878533 39.89707372 48.84381104 41.31591797 C49.70520691 42.18361816 50.56660278 43.05131836 51.45410156 43.9453125 C52.21321838 44.70602051 52.97233521 45.46672852 53.75445557 46.25048828 C57.02966954 49.97038413 57.93100902 52.82404429 58 57.75 C58.02835938 58.66523437 58.05671875 59.58046875 58.0859375 60.5234375 C56.87236452 68.03113474 50.13516952 73.02501991 44.9375 78.0625 C38.34420928 84.55226891 32.29797002 91.06470937 26.625 98.375 C25.18761426 100.06259733 23.75010941 101.75009321 22.3125 103.4375 C10.56759422 117.86928197 1.55578645 134.1178381 -7.375 150.375 C-13.55858312 145.25645289 -19.22737565 139.68626617 -24.90234375 134.015625 C-25.90117874 133.02000887 -26.90008645 132.02446569 -27.89906311 131.0289917 C-29.97752791 128.95647537 -32.05395582 126.88194286 -34.12915039 124.80615234 C-36.7929043 122.14229597 -39.46352247 119.48543463 -42.13587093 116.83020401 C-44.19381496 114.78334216 -46.24723482 112.73198845 -48.29937935 110.67931366 C-49.28300418 109.69687064 -50.26825497 108.71605279 -51.2551403 107.73688507 C-52.62654804 106.3752188 -53.99107018 105.00662807 -55.35522461 103.63769531 C-56.13353134 102.8608136 -56.91183807 102.08393188 -57.71372986 101.2835083 C-59.375 99.375 -59.375 99.375 -59.375 97.375 C-59.96796875 97.12105469 -60.5609375 96.86710937 -61.171875 96.60546875 C-63.61897699 95.23873626 -64.86847954 93.85757018 -66.625 91.6875 C-68.90610695 88.99426028 -71.17224598 86.58046315 -73.875 84.3125 C-80.79283749 78.46528021 -87.01575811 71.81497445 -93.375 65.375 C-91.09727888 63.85651925 -88.98914455 62.62654349 -86.55859375 61.4140625 C-66.94858806 51.47308244 -48.81881807 39.36359437 -32.625 24.44140625 C-30.6405318 22.61886514 -28.61714108 20.86716442 -26.5625 19.125 C-22.11025414 15.27367076 -18.0260649 11.05239002 -13.94213867 6.81738281 C-9.498577 2.27635987 -6.55936959 0.09186792 0 0 Z " fill="#FEF1FA" transform="translate(454.375,-0.375)"/>
<path d="M0 0 C0.66 0 1.32 0 2 0 C3.26953125 1.29296875 3.26953125 1.29296875 4.8125 3.1875 C10.15418024 9.49522879 16.12052783 15.20009963 22 21 C18.92966588 25.23185226 15.79926454 29.27996341 12.25 33.125 C-9.00853189 56.80845948 -20.73132587 85.9975979 -29.375 116.1875 C-34.41399892 133.6855622 -39.99624748 151.10798981 -49 167 C-49.35030273 167.6290625 -49.70060547 168.258125 -50.06152344 168.90625 C-57.39185171 181.97307057 -66.20166879 193.35450496 -76.45703125 204.24609375 C-78.24404499 206.18133905 -79.93138714 208.10590799 -81.59375 210.140625 C-83.54104729 212.45462113 -85.38454669 214.37921816 -87.6875 216.3125 C-89.8852411 218.17651005 -92.04601308 220.04349411 -94.140625 222.0234375 C-110.76420244 237.68578767 -130.94308487 249.4212568 -152 258 C-152.93585938 258.39960938 -153.87171875 258.79921875 -154.8359375 259.2109375 C-174.36759274 267.40560673 -174.36759274 267.40560673 -182.90625 264.30859375 C-187.26817564 262.09990682 -189.94621542 259.51832608 -192 255 C-192.79939588 250.39826026 -193.01936377 246.12720061 -190.96484375 241.83984375 C-188.42117554 238.50260774 -185.87249382 236.72493726 -181.87109375 235.5078125 C-180.68181274 235.1351123 -180.68181274 235.1351123 -179.46850586 234.75488281 C-178.24659546 234.38121582 -178.24659546 234.38121582 -177 234 C-132.39827837 219.6982848 -95.0939146 188.8915214 -73.3125 147.1875 C-69.80267279 139.95660599 -67.18770409 132.48488557 -64.63916016 124.87158203 C-63.82026732 122.47370866 -62.91053259 120.11438709 -62 117.75 C-60.10622945 112.59863236 -58.66053317 107.34520036 -57.1875 102.0625 C-47.67940838 68.18406607 -32.62523586 38.98949456 -10 12 C-9.09348426 10.88538787 -8.18859844 9.76944858 -7.28515625 8.65234375 C-6.37770719 7.53897852 -5.47015722 6.42569554 -4.5625 5.3125 C-3.73878906 4.29800781 -2.91507813 3.28351563 -2.06640625 2.23828125 C-1.38449219 1.49964844 -0.70257813 0.76101562 0 0 Z " fill="#CC2E43" transform="translate(393,97)"/>
<path d="M0 0 C5.55439924 4.62491379 10.68525669 9.55360964 15.77734375 14.6796875 C16.58869278 15.49245148 17.40004181 16.30521545 18.23597717 17.14260864 C20.8055259 19.71771738 23.37155968 22.2962962 25.9375 24.875 C27.68791929 26.63043946 29.438568 28.38565017 31.18945312 30.140625 C35.46229302 34.42444082 39.73225899 38.71110472 44 43 C41.33414607 45.66585393 38.17000367 46.95154278 34.8125 48.5625 C7.91302549 61.79239599 -15.34180968 80.59908861 -36.04272461 102.16723633 C-40.35951125 106.59403359 -43.17838362 108.28821266 -49.375 108.375 C-50.29023437 108.40335938 -51.20546875 108.43171875 -52.1484375 108.4609375 C-57.91489673 107.52882491 -61.98132588 103.26566989 -65.9609375 99.234375 C-67.28544922 97.90019531 -67.28544922 97.90019531 -68.63671875 96.5390625 C-69.54035156 95.61867188 -70.44398437 94.69828125 -71.375 93.75 C-72.30183594 92.81414062 -73.22867188 91.87828125 -74.18359375 90.9140625 C-76.46033607 88.61384861 -78.73226171 86.30908555 -81 84 C-79.648351 80.98413143 -78.14363498 78.89700876 -75.80503845 76.57125854 C-75.14743027 75.91234619 -74.48982208 75.25343384 -73.81228638 74.57455444 C-73.09169037 73.86272003 -72.37109436 73.15088562 -71.62866211 72.41748047 C-70.86919785 71.65933044 -70.10973358 70.90118042 -69.32725525 70.12005615 C-66.81518054 67.61447415 -64.29621259 65.11593763 -61.77734375 62.6171875 C-60.03331183 60.87942484 -58.28979331 59.14114678 -56.54676819 57.40237427 C-51.95644071 52.82535592 -47.36058136 48.25393595 -42.76312256 43.68408203 C-35.39894364 36.36301127 -28.04147163 29.03521519 -20.68719673 21.70419693 C-18.11193386 19.13918964 -15.5333025 16.57760411 -12.95433044 14.0163269 C-11.38342087 12.45224246 -9.81261923 10.88804961 -8.24194336 9.32373047 C-7.51932312 8.6078476 -6.79670288 7.89196472 -6.05218506 7.15438843 C-5.3973967 6.50111572 -4.74260834 5.84784302 -4.06797791 5.17477417 C-3.49629851 4.60661421 -2.92461912 4.03845425 -2.33561611 3.45307732 C-0.89490758 2.01983516 -0.89490758 2.01983516 0 0 Z " fill="#FEBFBF" transform="translate(107,404)"/>
<path d="M0 0 C3.56195113 1.6767386 5.89477088 3.63700154 8.6953125 6.4296875 C10.01595703 7.74646484 10.01595703 7.74646484 11.36328125 9.08984375 C12.27464844 10.00894531 13.18601562 10.92804687 14.125 11.875 C15.04410156 12.78636719 15.96320313 13.69773437 16.91015625 14.63671875 C18.22693359 15.95736328 18.22693359 15.95736328 19.5703125 17.3046875 C20.37227051 18.10890137 21.17422852 18.91311523 22.00048828 19.74169922 C25.35547241 23.53090596 26.30449676 26.34106886 26.375 31.375 C26.40335938 32.29023437 26.43171875 33.20546875 26.4609375 34.1484375 C25.24736452 41.65613474 18.51016952 46.65001991 13.3125 51.6875 C6.71920928 58.17726891 0.67297002 64.68970937 -5 72 C-6.43738574 73.68759733 -7.87489059 75.37509321 -9.3125 77.0625 C-21.05740578 91.49428197 -30.06921355 107.7428381 -39 124 C-44.47313966 119.43852453 -49.53954809 114.59258679 -54.55859375 109.5390625 C-55.34774673 108.74849457 -56.13689972 107.95792664 -56.94996643 107.1434021 C-59.44818661 104.63962374 -61.94289044 102.13237525 -64.4375 99.625 C-66.13974208 97.91773752 -67.84221373 96.21070391 -69.54492188 94.50390625 C-73.69927363 90.33858102 -77.85075081 86.17040781 -82 82 C-54.66666667 54.66666667 -27.33333333 27.33333333 0 0 Z " fill="#FEBFBF" transform="translate(486,26)"/>
<path d="M0 0 C3 1 3 1 4.15625 2.765625 C5.07723135 5.20452006 5.40049271 7.14622595 5.5 9.75 C5.5515625 10.54921875 5.603125 11.3484375 5.65625 12.171875 C3.75630513 20.35973267 -4.64699137 26.93991137 -10.37890625 32.64453125 C-11.26859604 33.53613449 -12.15828583 34.42773773 -13.07493591 35.34635925 C-14.94590672 37.2186844 -16.81873276 39.08888859 -18.69506836 40.95581055 C-21.09133226 43.34063156 -23.47843587 45.73438943 -25.86300755 48.13089466 C-28.15510939 50.43197917 -30.45483666 52.72541158 -32.75390625 55.01953125 C-33.60610245 55.87577591 -34.45829865 56.73202057 -35.33631897 57.61421204 C-36.13742599 58.40901474 -36.93853302 59.20381744 -37.76391602 60.02270508 C-38.46307632 60.7202742 -39.16223663 61.41784332 -39.88258362 62.1365509 C-44.75436169 66.42399788 -48.26767837 67.47527133 -54.6171875 67.3046875 C-57.63442177 66.91887722 -59.63475365 65.89219708 -62 64 C-60.36934355 59.86374991 -57.36776548 57.10043401 -54.26513672 54.03808594 C-53.38687729 53.15938843 -53.38687729 53.15938843 -52.49087524 52.26293945 C-50.55851644 50.33197161 -48.61917484 48.40818053 -46.6796875 46.484375 C-45.33689544 45.14531389 -43.99454487 43.80580991 -42.65261841 42.46588135 C-39.12246283 38.94335571 -35.58634194 35.42687797 -32.0489502 31.91162109 C-28.43917149 28.32231449 -24.83505985 24.72732744 -21.23046875 21.1328125 C-14.15918442 14.08296682 -7.08158587 7.03949663 0 0 Z " fill="#CC2E43" transform="translate(287,225)"/>
<path d="M0 0 C2 0 2 0 3.65625 1.609375 C4.2646875 2.31578125 4.873125 3.0221875 5.5 3.75 C6.1084375 4.44609375 6.716875 5.1421875 7.34375 5.859375 C8.88551036 7.85202753 9.91454589 9.74041089 11 12 C4.260449 18.78581218 -2.4844309 25.56626838 -9.23624992 32.33987427 C-12.37093736 35.48501623 -15.50373028 38.63199873 -18.63232422 41.78320312 C-21.64945737 44.82200522 -24.67139488 47.85595092 -27.69678116 50.88653564 C-28.85240661 52.04586757 -30.00626511 53.20696347 -31.1583519 54.36981201 C-32.76748412 55.99338007 -34.38268292 57.61066419 -35.99951172 59.2265625 C-36.91884491 60.15033691 -37.8381781 61.07411133 -38.78536987 62.02587891 C-41 64 -41 64 -43 64 C-41.4857016 58.83021783 -39.23378551 54.36604055 -36.625 49.6875 C-36.18873291 48.9049585 -35.75246582 48.12241699 -35.30297852 47.31616211 C-28.09928022 34.6598496 -19.38776025 23.10803046 -10 12 C-9.09563825 10.88966143 -8.19338983 9.77759911 -7.29296875 8.6640625 C-6.38286908 7.54682891 -5.47271393 6.4296405 -4.5625 5.3125 C-3.73878906 4.29800781 -2.91507812 3.28351563 -2.06640625 2.23828125 C-1.38449219 1.49964844 -0.70257813 0.76101562 0 0 Z " fill="#EB5468" transform="translate(393,97)"/>
<path d="M0 0 C0.495 0.99 0.495 0.99 1 2 C-0.14184544 4.58531042 -1.34657341 7.01881657 -2.6875 9.5 C-3.29392334 10.629823 -3.29392334 10.629823 -3.91259766 11.7824707 C-14.23558358 30.61968096 -27.26732894 47.44093153 -42 63 C-45.21524305 61.59155282 -47.32183868 59.89655214 -49.75 57.375 C-50.36359375 56.74335938 -50.9771875 56.11171875 -51.609375 55.4609375 C-52.06828125 54.97882813 -52.5271875 54.49671875 -53 54 C-47.75179943 47.63491433 -41.97528548 41.84677025 -36.1328125 36.03515625 C-35.08741675 34.99162921 -34.04224425 33.94787848 -32.99728394 32.90391541 C-30.2672716 30.17769255 -27.53426807 27.45448819 -24.80059814 24.73193359 C-22.00324846 21.94487541 -19.20878299 19.15492854 -16.4140625 16.36523438 C-10.94550306 10.90734919 -5.47377555 5.45265441 0 0 Z " fill="#CC2E43" transform="translate(161,351)"/>
</svg>
