<?xml version="1.0" encoding="UTF-8"?>
<svg version="1.1" xmlns="http://www.w3.org/2000/svg" width="512" height="512">
<path d="M0 0 C5.38950233 5.79981423 9.95735829 12.40387531 14.6640625 18.76171875 C18.69437411 24.18431982 22.87070151 29.49242081 27.06494141 34.78881836 C39.40883834 50.50300713 39.40883834 50.50300713 39.30859375 61.30078125 C38.77931934 65.66580842 37.0981056 69.07727721 33.9609375 72.16796875 C31.28515625 73.3828125 31.28515625 73.3828125 28.9609375 74.16796875 C24.99952136 70.29915714 21.09967766 66.40703655 17.4609375 62.23046875 C16.88214844 61.57175781 16.30335938 60.91304688 15.70703125 60.234375 C14.52972526 58.84109789 13.39685784 57.40919493 12.30859375 55.9453125 C8.16435222 50.65845733 3.75574311 47.59800146 -2.1640625 44.60546875 C-2.84525146 44.25871094 -3.52644043 43.91195312 -4.22827148 43.5546875 C-8.29998769 41.62016394 -11.43961169 40.66832603 -16.0390625 41.16796875 C-18.0390625 42.16796875 -18.0390625 42.16796875 -19.0390625 44.16796875 C-19.62251726 47.12543367 -19.62251726 47.12543367 -19.0390625 50.16796875 C-16.28066785 53.50473647 -13.70451937 54.85539648 -9.7265625 56.41796875 C-0.61148758 60.77443838 5.44444941 68.65810274 11.9609375 76.16796875 C13.27701192 77.67086357 14.59340756 79.17347716 15.91015625 80.67578125 C16.92731088 81.83964492 17.94432572 83.00363087 18.9609375 84.16796875 C17.17047339 88.30515766 14.79996379 89.83117014 10.9609375 92.16796875 C10.30609375 91.36875 9.65125 90.56953125 8.9765625 89.74609375 C-5.63860481 71.07703307 -5.63860481 71.07703307 -26.2421875 60.7109375 C-28.87251076 60.56173849 -30.70136689 60.97188743 -32.9765625 62.29296875 C-34.54328495 65.05777308 -34.42882685 67.04985392 -34.0390625 70.16796875 C-31.6796161 73.25524438 -28.56051201 74.42459965 -25.1015625 76.04296875 C-17.63757039 79.96218869 -12.72391727 85.23480247 -7.33886719 91.62597656 C-5.5258216 93.77683981 -3.65462424 95.87515611 -1.7890625 97.98046875 C-0.8704305 99.04126999 0.04716764 100.10297642 0.9609375 101.16796875 C-0.57444114 104.92492877 -2.85154635 107.1032991 -5.8515625 109.79296875 C-6.70363281 110.56898438 -7.55570313 111.345 -8.43359375 112.14453125 C-13.96326168 116.43893603 -19.23513623 116.9702694 -26.0390625 116.16796875 C-33.26942788 114.20562915 -37.49717599 108.82116792 -42.0390625 103.16796875 C-42.9671875 103.97234375 -43.8953125 104.77671875 -44.8515625 105.60546875 C-47.03185281 107.49505369 -48.21243685 108.2257602 -51.0390625 109.16796875 C-50.52702744 119.05878547 -48.60900813 128.71714785 -46.81556702 138.43556786 C-46.24711414 141.51896752 -45.68556787 144.60355547 -45.12585449 147.68855286 C-43.53462178 156.45310226 -41.93262081 165.21566144 -40.32275391 173.97680664 C-39.33467447 179.3567822 -38.35572898 184.73835835 -37.38209534 190.12096596 C-37.01242722 192.15424978 -36.63934036 194.18691552 -36.26255798 196.21889305 C-29.45004304 232.96898265 -29.45004304 232.96898265 -36.6953125 243.59765625 C-38.42660009 245.83512538 -40.21341521 248.00726148 -42.0390625 250.16796875 C-44.12495994 252.7141226 -44.12495994 252.7141226 -45.0390625 255.16796875 C-44.14300482 259.02101677 -43.38752351 259.93566141 -40.0390625 262.16796875 C-36.61886063 262.40658749 -34.71907058 261.7312489 -32.08203125 259.546875 C-22.58348511 249.64877242 -18.80607688 237.67894712 -17.7265625 224.29296875 C-17.82644014 219.46887896 -19.23199762 214.85196507 -20.48046875 210.21875 C-21.22505163 206.15218196 -20.44883826 203.39729603 -19.1640625 199.54296875 C-14.50672463 194.33770877 -5.68506366 193.91821663 0.9609375 193.16796875 C30.601669 191.60962135 56.93944256 197.32673983 79.74511719 217.15869141 C90.16303916 226.59473255 97.21176779 236.81520975 103.88867188 249.08349609 C104.37400391 249.96859863 104.85933594 250.85370117 105.359375 251.765625 C105.78911621 252.56492432 106.21885742 253.36422363 106.66162109 254.18774414 C107.96215879 256.45143255 107.96215879 256.45143255 110.9609375 258.16796875 C114.53850436 258.1687941 114.53850436 258.1687941 117.9609375 257.16796875 C119.62760417 255.50130208 119.62760417 255.50130208 119.9609375 253.16796875 C119.46711373 248.26564549 117.19068706 244.31288261 114.8984375 240.04296875 C114.50084229 239.29539307 114.10324707 238.54781738 113.69360352 237.77758789 C110.28148535 231.494668 106.40666599 225.7766126 101.9609375 220.16796875 C116.89795384 203.73725078 140.6667291 195.39044223 162.29296875 193.9453125 C187.27776064 193.2885694 209.7912144 202.08253361 227.921875 219.1796875 C228.59476562 219.83582031 229.26765625 220.49195313 229.9609375 221.16796875 C230.8478125 222.01359375 231.7346875 222.85921875 232.6484375 223.73046875 C233.4115625 224.53484375 234.1746875 225.33921875 234.9609375 226.16796875 C235.73824219 226.95300781 235.73824219 226.95300781 236.53125 227.75390625 C250.95346533 243.08155214 257.59399557 263.80882289 257.3359375 284.54296875 C257.32651123 285.7247168 257.31708496 286.90646484 257.30737305 288.12402344 C257.1572757 296.82368963 256.40243307 304.78025011 253.9609375 313.16796875 C253.620625 314.39 253.2803125 315.61203125 252.9296875 316.87109375 C248.65601819 330.90489973 242.44797302 342.7819644 231.9609375 353.16796875 C231.0946875 354.07546875 230.2284375 354.98296875 229.3359375 355.91796875 C228.5521875 356.66046875 227.7684375 357.40296875 226.9609375 358.16796875 C226.48785156 358.62429688 226.01476562 359.080625 225.52734375 359.55078125 C200.19419012 382.757651 155.071133 386.39459405 122.23095703 385.27734375 C110.49838878 384.7120404 97.36239797 383.57454239 86.80859375 378.0390625 C81.37875741 375.47911852 74.24528215 378.66573313 68.9609375 380.41796875 C61.81101886 382.78236445 54.59132527 384.43444068 47.2109375 385.91796875 C45.66792969 386.23362793 45.66792969 386.23362793 44.09375 386.55566406 C30.67419132 389.17693975 17.33517706 389.4086085 3.7109375 389.41796875 C2.82554291 389.41864349 1.94014832 389.41931824 1.02792358 389.42001343 C-55.65159398 389.35159002 -105.73750211 368.26399436 -152 336.45703125 C-157.78933927 332.51764795 -163.22676547 329.51860433 -169.9140625 327.48046875 C-178.2181558 324.93927837 -183.54701773 322.15429921 -187.9765625 314.54296875 C-196.28815705 298.48327758 -189.8446841 277.24436273 -185.7578125 260.85546875 C-185.19315004 258.51449922 -184.63067493 256.17300117 -184.07020569 253.83102417 C-182.56518005 247.56705867 -181.03169139 241.31039638 -179.4924202 235.05477142 C-178.04845015 229.1772847 -176.6299213 223.29364043 -175.21000636 217.41030574 C-174.40647035 214.08090992 -173.60209933 210.75171604 -172.79750061 207.4225769 C-172.63724677 206.75946884 -172.47699293 206.09636078 -172.31188291 205.41315854 C-171.16989299 200.69013086 -170.02281255 195.96835627 -168.8735199 191.24710083 C-164.79663172 174.49429808 -160.78793315 157.72704067 -156.85367203 140.94002533 C-156.02111368 137.38774167 -155.18705357 133.83581398 -154.35250854 130.28399658 C-151.20703044 116.89675397 -151.20703044 116.89675397 -148.07714844 103.50585938 C-146.88145161 98.37766743 -145.67583186 93.25190391 -144.46294975 88.1277504 C-144.02491493 86.26925709 -143.59045392 84.40991688 -143.16002083 82.54964828 C-137.14446157 56.56765147 -137.14446157 56.56765147 -128.0390625 46.16796875 C-127.57371094 45.59820312 -127.10835937 45.0284375 -126.62890625 44.44140625 C-117.50253762 34.2180061 -102.64644325 28.23372001 -90.86914062 21.68237305 C-83.40812879 17.52480772 -76.02394077 13.25153248 -68.6640625 8.91796875 C-21.0591785 -18.92098605 -21.0591785 -18.92098605 0 0 Z M143.9609375 229.16796875 C143.53924961 232.47119053 143.62402754 234.47543162 145.0859375 237.48046875 C147.65903164 239.79625348 149.5379907 239.96259194 152.9609375 240.16796875 C153.70472656 240.01199219 154.44851563 239.85601562 155.21484375 239.6953125 C169.84951412 236.88495617 184.43296648 240.42710861 196.9609375 248.16796875 C206.04309314 254.80189113 212.54404994 263.53649316 217.0859375 273.79296875 C218.67717783 277.34100204 218.67717783 277.34100204 221.8984375 278.85546875 C225.69890279 279.24327133 227.0190724 278.53780453 229.9609375 276.16796875 C232.26981721 273.37320742 232.26981721 273.37320742 231.7421875 270.3359375 C227.88358826 254.68931757 215.46534101 241.29165242 202.04956055 232.96972656 C190.33764522 226.03434083 177.66011058 223.00861431 164.0859375 222.91796875 C162.93931641 222.88703125 162.93931641 222.88703125 161.76953125 222.85546875 C155.17402902 222.81067756 148.3995508 223.76545636 143.9609375 229.16796875 Z M-85.4140625 235.35546875 C-87.08202714 238.24233062 -87.73953267 239.87314062 -88.0390625 243.16796875 C-88.10222656 243.7815625 -88.16539062 244.39515625 -88.23046875 245.02734375 C-88.82688124 255.57037741 -84.86398312 266.19802833 -78.0390625 274.16796875 C-73.68580717 278.61501056 -69.0490209 283.20819971 -63.0390625 285.16796875 C-59.24903909 285.10373107 -57.00863359 284.95574526 -54.0390625 282.54296875 C-52.44981154 278.76849773 -52.65578733 277.05431327 -54.0390625 273.16796875 C-56.41584121 271.1618803 -58.91090516 269.52725306 -61.52734375 267.84765625 C-66.48649307 264.53127335 -69.55701404 260.34533993 -71.5625 254.6484375 C-72.40394537 250.26878332 -72.03239027 245.86881591 -71.75390625 241.4375 C-72.10323402 237.43219388 -73.15737235 235.91751791 -76.0390625 233.16796875 C-80.3548055 232.39730036 -82.14342817 232.3430424 -85.4140625 235.35546875 Z M-79.4765625 330.79296875 C-81.51067586 333.88482106 -81.64511679 335.531643 -81.0390625 339.16796875 C-68.90985605 354.08283027 -32.61963647 357.59424697 -14.79077148 359.6015625 C11.85605093 362.34021628 11.85605093 362.34021628 37.9609375 358.16796875 C40.40255027 355.63653076 41.78472663 354.07104945 42.4609375 350.60546875 C41.78636478 347.31692675 40.61891629 346.17941216 37.9609375 344.16796875 C34.73506531 342.93454703 32.01849935 343.23540689 28.66796875 343.640625 C-3.34788089 346.9654814 -37.00399262 342.84405697 -66.69921875 330.26953125 C-71.31121724 328.74838087 -75.31135858 328.01616614 -79.4765625 330.79296875 Z " fill="#FE7689" transform="translate(223.0390625,65.83203125)"/>
</svg>
